
<svg xmlns="http://www.w3.org/2000/svg" viewBox="0 0 55 55">
	<style type="text/css">
		.st0{fill:#313944;filter:url(#dropshadow);}
		.st1{fill:url(#SVGID_1_);}
		.st2{fill:url(#SVGID_2_);}
		.st3{opacity:0.55;fill:#424B56;}
	</style>
	<filter x="-6.1%" y="-3.9%" width="112.1%" height="113.2%" filterUnits="objectBoundingBox" id="dropshadow">
		<feOffset dx="0" dy="1" in="SourceAlpha" result="numbersShadowOffsetOuter1"></feOffset>
		<feGaussianBlur stdDeviation=".5" in="numbersShadowOffsetOuter2" result="numbersShadowBlurOuter2"></feGaussianBlur>
		<feColorMatrix values="0 0 0 0 0   0 0 0 0 0   0 0 0 0 0  0 0 0 0.5 0" type="matrix" in="numbersShadowBlurOuter2" result="numbersShadowMatrixOuter2"></feColorMatrix>
		<feMerge>
			<feMergeNode in="numbersShadowMatrixOuter2"></feMergeNode>
			<feMergeNode in="SourceGraphic"></feMergeNode>
		</feMerge>
	</filter>
	<linearGradient id="SVGID_1_" gradientUnits="userSpaceOnUse" x1="27.5" y1="2.0831" x2="27.5" y2="50.8448">
		<stop  offset="0" style="stop-color:#5D6675"/>
		<stop  offset="1" style="stop-color:#303845"/>
	</linearGradient>
	<linearGradient id="SVGID_2_" gradientUnits="userSpaceOnUse" x1="31.9842" y1="0.7106" x2="44.6519" y2="49.6117">
		<stop  offset="0" style="stop-color:#FFFFFF;stop-opacity:0.35"/>
		<stop  offset="0.6798" style="stop-color:#FFFFFF;stop-opacity:0"/>
	</linearGradient>
	<path class="st0" d="M40.34,12.67H40.2V4.63c0-2.1-1.71-3.8-3.8-3.8H18.66c-2.1,0-3.8,1.71-3.8,3.8v3.04h-0.14
		c-0.09,0-0.16,0.07-0.16,0.16v1.6c0,0.09,0.07,0.16,0.16,0.16h0.14v1.68h-0.14c-0.09,0-0.16,0.07-0.16,0.16v3.37
		c0,0.09,0.07,0.16,0.16,0.16h0.14v1.15h-0.14c-0.09,0-0.16,0.07-0.16,0.16v3.37c0,0.09,0.07,0.16,0.16,0.16h0.14v28.46
		c0,2.1,1.71,3.8,3.8,3.8H36.4c2.1,0,3.8-1.71,3.8-3.8V18.76h0.14c0.09,0,0.16-0.07,0.16-0.16v-5.76
		C40.51,12.74,40.43,12.67,40.34,12.67z"/>
	<path class="st1" d="M36.37,2.08h-2.45v0.06c0,0.88-0.72,1.6-1.6,1.6h-9.57c-0.88,0-1.6-0.72-1.6-1.6V2.08h-2.52
		c-1.41,0-2.55,1.14-2.55,2.55v43.66c0,1.41,1.15,2.55,2.55,2.55h17.74c1.41,0,2.55-1.15,2.55-2.55V4.63
		C38.92,3.23,37.78,2.08,36.37,2.08z"/>
	<path class="st2" d="M40.4,18.76c0.04-0.02,0.11-0.06,0.11-0.15v-5.76c0-0.09-0.07-0.16-0.16-0.16l-0.15,0l0.01-8.05
		c0-2.08-1.72-3.8-3.8-3.8H24.69l14.52,50.01c0.64-0.68,0.99-1.63,0.93-2.83l0.06-29.25L40.4,18.76z"/>
	<path class="st3" d="M29.8,2.78h-5.79c-0.18,0-0.33-0.15-0.33-0.33v0c0-0.18,0.15-0.33,0.33-0.33h5.79c0.18,0,0.33,0.15,0.33,0.33v0
		C30.13,2.63,29.98,2.78,29.8,2.78z"/>
	<path class="st3" d="M31.05,2.78h-0.03c-0.18,0-0.33-0.15-0.33-0.33v0c0-0.18,0.15-0.33,0.33-0.33h0.03c0.18,0,0.33,0.15,0.33,0.33
		v0C31.38,2.63,31.23,2.78,31.05,2.78z"/>
</svg>
